<?xml version="1.0" standalone="no"?>
<!DOCTYPE svg PUBLIC "-//W3C//DTD SVG 20010904//EN"
 "http://www.w3.org/TR/2001/REC-SVG-20010904/DTD/svg10.dtd">
<svg version="1.0" xmlns="http://www.w3.org/2000/svg"
 width="1024.000000pt" height="1024.000000pt" viewBox="0 0 1024.000000 1024.000000"
 preserveAspectRatio="xMidYMid meet">
<metadata>
Created by potrace 1.16, written by Peter Selinger 2001-2019
</metadata>
<g transform="translate(0.000000,1024.000000) scale(0.100000,-0.100000)"
fill="#000000" stroke="none">
<path d="M0 5120 l0 -5120 5120 0 5120 0 0 5120 0 5120 -5120 0 -5120 0 0
-5120z m4178 428 c16 -16 16 -80 0 -96 -7 -7 -24 -12 -38 -12 -14 0 -31 5 -38
12 -13 13 -17 90 -5 101 11 12 68 8 81 -5z m1164 -17 c21 -8 29 -30 72 -201
26 -105 46 -194 43 -196 -2 -2 -9 15 -16 38 -26 86 -59 148 -79 148 -25 0 -38
16 -50 60 -11 41 -10 43 -52 -109 -17 -63 -28 -121 -26 -128 4 -11 24 -14 77
-12 60 2 74 -1 85 -16 8 -11 14 -22 14 -27 0 -4 -49 -8 -110 -8 l-110 0 0 28
c1 15 7 56 15 92 8 36 14 76 14 90 0 20 -5 15 -25 -25 -13 -27 -22 -41 -20
-30 27 117 71 283 79 293 11 14 56 16 89 3z m-1332 -51 l0 -50 -85 0 -85 0 0
-90 0 -89 78 -3 77 -3 3 -42 c3 -44 -11 -59 -21 -22 -5 19 -12 20 -86 17 -91
-3 -91 -3 -91 69 0 36 -4 46 -19 50 -11 3 -22 15 -25 26 -8 30 -7 172 1 180 3
4 62 7 130 7 l123 0 0 -50z m924 0 c23 -8 26 -15 26 -59 0 -52 8 -61 55 -61
25 0 34 -19 27 -57 -4 -19 -11 -23 -43 -23 l-39 0 0 -137 c-1 -124 -2 -136
-15 -119 -9 12 -15 42 -15 75 0 31 -3 93 -7 139 l-6 83 -22 -21 c-12 -11 -32
-20 -46 -20 -19 0 -21 2 -9 10 13 9 13 12 -3 24 -26 20 -18 50 13 54 24 3 25
6 22 57 -3 45 -1 54 15 58 10 3 19 5 20 6 1 0 13 -3 27 -9z m-452 -117 c18
-16 26 -87 10 -96 -16 -10 -63 6 -58 19 3 8 1 14 -4 14 -12 0 -40 -41 -34 -51
3 -5 -2 -22 -11 -38 -11 -23 -15 -64 -16 -168 0 -86 -4 -131 -9 -118 -5 11 -9
75 -9 143 -1 79 -5 121 -11 117 -6 -4 -10 12 -10 42 0 63 -9 93 -27 93 -21 0
-12 44 10 48 25 5 47 -16 47 -46 0 -24 2 -24 36 16 39 46 57 51 86 25z m254
-8 c18 -11 24 -25 24 -51 0 -31 -3 -35 -17 -29 -10 4 -35 13 -56 19 -34 9 -41
8 -53 -9 -8 -10 -14 -28 -14 -40 0 -12 -3 -25 -7 -28 -10 -11 -33 13 -33 35 0
12 -6 18 -17 16 -14 -2 -17 3 -15 21 8 74 118 112 188 66z m1087 10 c21 -10
43 -35 65 -75 31 -56 33 -67 33 -154 0 -61 -5 -105 -15 -129 -8 -21 -17 -37
-20 -37 -3 0 -2 45 1 100 4 66 2 125 -7 170 -13 67 -14 70 -42 70 -25 0 -27
-2 -18 -19 14 -27 0 -32 -46 -16 -21 8 -44 14 -50 15 -21 0 -44 -84 -44 -162
0 -42 -4 -80 -10 -83 -6 -4 -10 8 -10 28 0 58 -12 127 -21 121 -5 -3 -9 22 -9
56 0 45 -4 62 -15 66 -8 4 -15 17 -15 30 0 18 5 24 23 24 28 0 47 -17 47 -44
0 -19 1 -19 23 2 23 21 76 52 90 52 5 0 23 -7 40 -15z m422 0 c51 -25 86 -104
92 -207 4 -85 -12 -178 -33 -185 -8 -3 -9 11 -3 44 11 69 11 131 -2 218 -11
74 -12 75 -41 75 -24 0 -27 -3 -20 -17 16 -30 4 -45 -21 -28 -12 8 -29 15 -38
15 -10 0 -19 5 -21 10 -5 17 -37 -12 -44 -40 -4 -14 -9 -63 -11 -110 -3 -47
-8 -89 -13 -93 -4 -5 -9 26 -12 67 -3 41 -10 81 -15 88 -6 7 -13 35 -17 62 -3
28 -13 54 -23 61 -22 16 -10 45 20 45 28 0 47 -17 47 -42 0 -10 5 -18 10 -18
6 0 10 4 10 10 0 12 70 60 88 60 8 0 29 -7 47 -15z m-2077 -7 c9 -9 12 -74 12
-232 0 -264 -16 -281 -22 -23 l-4 178 -32 30 c-18 17 -32 34 -32 39 0 20 60
26 78 8z m-330 -316 c2 -86 -1 -132 -8 -132 -5 0 -10 23 -10 53 0 28 -3 90 -7
136 -5 70 -4 83 8 79 11 -4 15 -34 17 -136z m846 123 c22 -17 17 -29 -7 -19
-16 6 -32 34 -19 34 4 0 16 -7 26 -15z m96 -143 c0 -39 -14 -71 -25 -60 -10
10 5 109 16 102 5 -3 9 -22 9 -42z m416 -5 c-12 -61 -27 -109 -33 -104 -9 10
20 147 30 140 5 -3 6 -19 3 -36z m644 -16 c0 -48 -78 -87 -100 -50 -12 18 -3
29 22 29 11 0 29 11 40 25 21 27 38 25 38 -4z m420 1 c-1 -21 -29 -57 -53 -66
-23 -8 -57 10 -57 29 0 9 9 15 23 15 13 0 34 11 47 25 24 26 40 25 40 -3z
m-1557 -40 c-15 -43 -68 -55 -98 -22 -18 20 -17 20 11 20 16 1 40 7 54 14 29
17 41 12 33 -12z m337 -19 c-1 -31 -3 -35 -11 -20 -5 9 -19 17 -29 17 -10 0
-22 5 -25 10 -11 17 5 30 36 30 27 0 29 -3 29 -37z m631 -56 l-9 -52 0 75 c-1
55 2 69 8 52 6 -14 6 -44 1 -75z m429 23 c0 -25 -5 -52 -10 -60 -7 -10 -10 8
-10 60 0 52 3 70 10 60 5 -8 10 -35 10 -60z"/>
</g>
</svg>
